 <svg  version="1.0" xmlns="http://www.w3.org/2000/svg"  width="300.000000pt" height="139.000000pt" viewBox="0 0 300.000000 139.000000"  preserveAspectRatio="xMidYMid meet">  <g transform="translate(0.000000,139.000000) scale(0.100000,-0.100000)" fill="#e40814" stroke="none"> <path d="M222 1038 c44 -128 85 -249 91 -269 9 -33 2 -65 -81 -330 -50 -161 -90 -294 -89 -295 4 -4 147 23 153 29 3 3 29 79 58 169 l52 163 53 -153 54 -153 61 7 c33 4 66 9 73 13 7 4 -17 87 -78 264 l-90 258 81 259 c44 143 80 262 80 265 0 3 -33 5 -74 5 l-75 0 -41 -132 c-22 -73 -43 -140 -46 -148 -3 -8 -29 51 -57 133 l-52 147 -77 0 -77 0 81 -232z"/> <path d="M762 738 l3 -493 88 -3 87 -3 0 206 0 205 120 0 120 0 0 85 0 85 -120 0 -120 0 0 120 0 120 160 0 160 0 0 85 0 85 -250 0 -250 0 2 -492z"/> <path d="M1380 735 l0 -494 33 -5 c17 -3 102 -8 187 -11 85 -3 179 -8 208 -11 l53 -6 -3 88 -3 89 -100 6 c-55 4 -124 7 -152 8 l-53 1 0 415 0 415 -85 0 -85 0 0 -495z"/> <path d="M2010 716 l0 -513 53 -7 c28 -3 67 -6 85 -6 l32 0 0 520 0 520 -85 0 -85 0 0 -514z"/> <path d="M2343 1218 c73 -182 197 -511 197 -521 0 -8 -49 -128 -110 -267 -60 -140 -109 -255 -107 -256 1 -2 43 -6 93 -10 l90 -7 64 147 c34 81 65 144 69 141 3 -4 34 -77 67 -163 l62 -157 73 -12 c41 -6 86 -12 100 -12 l26 -1 -115 296 -114 296 115 269 115 269 -97 0 -97 0 -59 -141 c-33 -77 -63 -143 -66 -145 -4 -2 -33 61 -64 141 l-57 145 -95 0 c-72 0 -94 -3 -90 -12z"/> </g> </svg> 